<svg id="_x33_0" enable-background="new 0 0 64 64" height="512" viewBox="0 0 64 64" width="512" xmlns="http://www.w3.org/2000/svg"><g><g><g><path d="m34.479 27h-4.959c-3.611 0-6.676-2.819-6.975-6.419l-.632-6.581h20.174l-.633 6.581c-.299 3.6-3.363 6.419-6.975 6.419z" fill="#f0bc5e"/></g></g><g><g><path d="m32 47c-2.757 0-5-2.243-5-5v-8c0-2.757 2.243-5 5-5s5 2.243 5 5v8c0 2.757-2.243 5-5 5z" fill="#f0bc5e"/></g></g><g><path d="m47 8.171v-7.171h-6v4h-2v-4h-6v4h-2v-4h-6v4h-2v-4h-6v7.171c0 .801.313 1.555.879 2.122l.013.013-.892 3.571v34.123c0 8.271 6.729 15 15 15s15-6.729 15-15v-34l-.899-3.687.02-.02c.567-.566.879-1.32.879-2.122zm-28-5.171h2v4h6v-4h2v4h6v-4h2v4h6v-4h2v5.171c0 .267-.104.519-.293.708l-.121.121h-25.172l-.121-.121c-.189-.189-.293-.441-.293-.708zm2 32h-2v-20h26v20h-2c-1.103 0-2 .897-2 2v11c0 4.962-4.037 9-9 9s-9-4.038-9-9v-11c0-1.103-.897-2-2-2zm-1.719-22 .5-2h24.438l.5 2zm12.719 48c-7.168 0-13-5.832-13-13v-11h2v11c0 6.065 4.935 11 11 11s11-4.935 11-11v-11h2v11c0 7.168-5.832 13-13 13z"/><path d="m27 37h10v2h-10z"/><path d="m31 49h2v2h-2z"/><path d="m31 53h2v2h-2z"/><path d="m31 33h2v2h-2z"/></g></g></svg>